<svg width="155" height="94" xmlns="http://www.w3.org/2000/svg" xmlns:xlink="http://www.w3.org/1999/xlink" overflow="hidden"><defs><clipPath id="clip0"><path d="M490 266 645 266 645 360 490 360Z" fill-rule="evenodd" clip-rule="evenodd"/></clipPath><clipPath id="clip1"><path d="M490 267 528 267 528 359 490 359Z" fill-rule="evenodd" clip-rule="evenodd"/></clipPath><clipPath id="clip2"><path d="M490 267 528 267 528 359 490 359Z" fill-rule="evenodd" clip-rule="evenodd"/></clipPath><clipPath id="clip3"><path d="M490 267 528 267 528 359 490 359Z" fill-rule="evenodd" clip-rule="evenodd"/></clipPath></defs><g clip-path="url(#clip0)" transform="translate(-490 -266)"><g clip-path="url(#clip1)"><g clip-path="url(#clip2)"><g clip-path="url(#clip3)"><path d="M24.2252 30.2784 24.2252 38.1805 58.7252 38.1805 58.7252 30.2784 24.2252 30.2784Z" fill="#5998CD" fill-rule="evenodd" transform="matrix(1.10145 0 -0 1 463.317 268.067)"/><path d="M38.7724 40.8862 32.3699 51.6441C35.0276 59.4963 38.855 83.0689 41.4752 90.9334 44.0955 83.0689 47.9229 59.4963 50.5807 51.6441L44.1782 40.8862 38.7724 40.8862ZM40.5612 47.4499 42.3893 47.4499 43.7516 51.5796C43.0872 53.5426 42.1304 78.134 41.4752 80.1002 40.8202 78.134 39.8634 53.5426 39.1989 51.5796L40.5612 47.4499Z" fill="#5998CD" fill-rule="evenodd" transform="matrix(1.10145 0 -0 1 463.317 268.067)"/><path d="M37.5242 12.1104 37.5242 27.5727 45.4264 27.5727 45.4264 12.1141C44.3701 13.0349 42.9885 13.5908 41.4772 13.5908 39.9639 13.5908 38.581 13.0332 37.5242 12.1104Z" fill="#5998CD" fill-rule="evenodd" transform="matrix(1.10145 0 -0 1 463.317 268.067)"/><path d="M60.2162 14.6839C60.2162 17.5609 57.2513 19.8932 53.5941 19.8932 49.9369 19.8932 46.9721 17.5609 46.9721 14.6839 46.9721 11.8068 49.9369 9.47451 53.5941 9.47451 57.2513 9.47451 60.2162 11.8068 60.2162 14.6839Z" fill="#5998CD" fill-rule="evenodd" transform="matrix(1 0 -0 1.1541 455.406 256.065)"/></g></g></g><text fill="#5998CD" font-family="Microsoft JhengHei UI,Microsoft JhengHei UI_MSFontService,sans-serif" font-weight="700" font-size="27" transform="translate(526.481 332)">THEMI<tspan x="86.1667" y="0">S</tspan></text></g></svg>