<?xml version="1.0" encoding="UTF-8"?>
<!DOCTYPE svg PUBLIC "-//W3C//DTD SVG 1.1//EN" "http://www.w3.org/Graphics/SVG/1.1/DTD/svg11.dtd">
<svg version="1.1" xmlns="http://www.w3.org/2000/svg" xmlns:xlink="http://www.w3.org/1999/xlink" width="1024" height="360"  xml:space="preserve" id="wAI">
    <g id="wAI-group">
        <rect id="wAI-rectangle" stroke="none" fill="rgb(255, 221, 153)" x="0" y="0" width="1024" height="360" />
        <rect id="wAI-rectangle2" stroke="none" fill="rgb(255, 255, 255)" x="0" y="0" width="350" height="360" />
        <path id="wAI-bezier17" fill-rule="evenodd" stroke="none" fill="rgb(92, 93, 96)" d="M 0,-0 L 1024,-0 1024,11.61 0,11.61 0,-0 Z M 0,-0" />
        <rect id="wAI-rectangle15" stroke="none" fill="rgb(0, 0, 0)" x="861" y="283.39" width="20.8" height="23" />
        <path id="wAI-bezier30" stroke="none" fill="rgb(0, 0, 0)" d="M 310.82,114.1 L 313.96,133.17 302.84,154.39 C 302.84,154.39 298.57,145.39 291.48,140.4 285.5,136.2 281.61,135.29 275.51,136.54 267.71,138.15 258.83,147.48 254.96,158.98 250.33,172.74 250.29,179.4 250.12,185.52 249.87,195.32 251.42,201.11 251.42,201.11 251.42,201.11 244.65,188.66 244.72,170.4 244.77,157.37 246.82,145.54 252.87,133.89 258.19,123.63 266.09,117.48 273.09,116.74 280.34,116 286.07,119.49 290.5,123.26 295.14,127.22 299.86,135.88 299.86,135.88 L 310.82,114.1 310.82,114.1 Z M 310.82,114.1" />
        <path id="wAI-bezier31" stroke="none" fill="rgb(0, 0, 0)" d="M 312.19,221.95 C 312.19,221.95 307.28,230.71 304.21,234.09 301.15,237.46 295.67,243.42 288.9,246.4 282.12,249.39 278.57,249.94 271.9,249.31 265.22,248.64 259,244.79 256.83,243.2 254.65,241.57 249.09,236.83 245.95,232.41 242.8,227.98 237.89,219.14 237.89,219.14 237.89,219.14 240.63,228.01 242.34,231.76 243.33,233.93 246.37,240.56 250.66,246.32 254.67,251.7 262.47,260.95 274.32,263.04 286.16,265.13 294.3,259.83 296.32,258.54 298.33,257.25 302.58,253.71 305.27,250.84 308.07,247.83 310.73,244.02 312.2,241.72 313.27,240.05 315.02,236.66 315.02,236.66 L 312.19,221.95 312.19,221.95 Z M 312.19,221.95" />
        <path id="wAI-bezier32" stroke="none" fill="rgb(0, 91, 156)" d="M 107.64,114.94 L 134.42,205.82 161.21,114.94 180.6,114.94 136.26,264.24 134.42,264.24 106.72,171.72 79.01,264.24 77.16,264.24 32.84,114.94 52.22,114.94 79.01,205.82 97.12,144.63 88.25,114.94 107.64,114.94 Z M 107.64,114.94" />
        <path id="wAI-bezier33" stroke="none" fill="rgb(0, 91, 156)" d="M 235.66,216.33 C 235.66,229.84 232.06,241.22 224.86,250.43 217.66,259.64 208.33,264.24 196.88,264.24 188.25,264.24 180.75,261.51 174.34,256.04 167.92,250.57 163.19,243.17 160.12,233.84 L 175.26,227.57 C 177.48,233.22 180.4,237.68 184.03,240.93 187.66,244.18 191.94,245.82 196.86,245.82 202.03,245.82 206.41,242.93 209.98,237.16 213.55,231.38 215.33,224.44 215.33,216.33 215.33,207.36 213.41,200.4 209.61,195.5 205.17,189.72 198.21,186.83 188.73,186.83 L 181.34,186.83 181.34,177.99 207.21,133.37 175.99,133.37 167.31,148.12 161.77,148.12 161.77,114.94 233.8,114.94 233.8,123.98 206.46,170.98 C 216.08,174.05 223.34,179.64 228.26,187.76 233.19,195.86 235.66,205.39 235.66,216.33 L 235.66,216.33 Z M 235.66,216.33" />
    </g>
    <text  fill="rgb(0, 0, 0)" font-family="BitstreamVeraSansMono-Bold, 'Bitstream Vera Sans Mono', monospace" font-weight="bold" font-size="131" x="895" y="185"><tspan x="895" y="307">1</tspan></text>
    <text  fill="rgb(140, 26, 29)" font-family="BitstreamVeraSansMono-Bold, 'Bitstream Vera Sans Mono', monospace" font-weight="bold" font-size="130" x="396.47" y="175" text-anchor="middle"><tspan x="553" y="307">ARIA</tspan></text>
    <text  fill="rgb(0, 0, 0)" font-family="BitstreamVeraSansMono-Bold, 'Bitstream Vera Sans Mono', monospace" font-weight="bold" font-size="145" x="555.55" y="32" text-anchor="middle"><tspan x="686.5" y="170">WAI</tspan></text>
    <text  fill="rgb(0, 0, 0)" font-family="BitstreamVeraSansMono-Bold, 'Bitstream Vera Sans Mono', monospace" font-weight="bold" font-size="131" x="763" y="185"><tspan x="763" y="307">1</tspan></text>
</svg>
