<?xml version="1.0" encoding="UTF-8"?>
<!DOCTYPE svg PUBLIC "-//W3C//DTD SVG 1.1//EN" "http://www.w3.org/Graphics/SVG/1.1/DTD/svg11.dtd">
<svg version="1.1" xmlns="http://www.w3.org/2000/svg" xmlns:xlink="http://www.w3.org/1999/xlink" width="1024" height="360"  xml:space="preserve" id="wCAG">
    <g id="wCAG-group">
        <rect id="wCAG-rectangle" stroke="none" fill="rgb(255, 221, 153)" x="0" y="0" width="1024" height="360" />
        <rect id="wCAG-rectangle2" stroke="none" fill="rgb(255, 255, 255)" x="0" y="0" width="350" height="360" />
        <path id="wCAG-bezier17" fill-rule="evenodd" stroke="none" fill="rgb(92, 93, 96)" d="M 0,-0 L 1024,-0 1024,11.61 0,11.61 0,-0 Z M 0,-0" />
        <path id="wCAG-bezier18" fill-rule="evenodd" stroke="none" fill="rgb(0, 0, 0)" d="M 398.73,68.35 L 416.47,68.35 423.82,143.54 432.69,94.9 449.52,94.9 459.83,143.54 465.62,68.35 483.48,68.35 471.66,170.77 452.76,170.77 441.06,116.99 430.14,170.77 411.38,170.77 398.73,68.35 Z M 398.73,68.35" />
        <path id="wCAG-bezier19" fill-rule="evenodd" stroke="none" fill="rgb(0, 0, 0)" d="M 516.27,68.35 L 541.08,68.35 568.77,170.77 548.5,170.77 542.18,145.45 515.03,145.45 508.83,170.77 488.55,170.77 516.27,68.35 516.27,68.35 Z M 528.64,86.86 L 519.09,128.78 538.26,128.78 528.64,86.86 528.64,86.86 Z M 528.64,86.86" />
        <path id="wCAG-bezier20" fill-rule="evenodd" stroke="none" fill="rgb(0, 0, 0)" d="M 585.68,86.18 L 585.68,68.35 646.8,68.35 646.8,86.18 626.37,86.18 626.37,152.93 646.8,152.93 646.8,170.77 585.68,170.77 585.68,152.93 606.09,152.93 606.09,86.18 585.68,86.18 Z M 585.68,86.18" />
        <rect id="wCAG-rectangle14" stroke="none" fill="rgb(0, 0, 0)" x="658.58" y="120.33" width="43.75" height="18.7" />
        <path id="wCAG-bezier21" fill-rule="evenodd" stroke="none" fill="rgb(140, 26, 29)" d="M 752.22,68.35 L 777.04,68.35 804.74,170.77 784.47,170.77 778.14,145.45 750.99,145.45 744.81,170.77 724.54,170.77 752.22,68.35 752.22,68.35 Z M 764.59,86.86 L 755.04,128.78 774.21,128.78 764.59,86.86 764.59,86.86 Z M 764.59,86.86" />
        <path id="wCAG-bezier22" fill-rule="evenodd" stroke="none" fill="rgb(140, 26, 29)" d="M 836.97,68.35 L 861.79,68.35 889.48,170.77 869.22,170.77 862.89,145.45 835.72,145.45 829.54,170.77 809.27,170.77 836.97,68.35 836.97,68.35 Z M 849.34,86.86 L 839.78,128.78 858.96,128.78 849.34,86.86 849.34,86.86 Z M 849.34,86.86" />
        <path id="wCAG-bezier23" fill-rule="evenodd" stroke="none" fill="rgb(140, 26, 29)" d="M 921.72,68.35 L 946.55,68.35 974.24,170.77 953.97,170.77 947.64,145.45 920.49,145.45 914.32,170.77 894.02,170.77 921.72,68.35 921.72,68.35 Z M 934.09,86.86 L 924.53,128.78 943.71,128.78 934.09,86.86 934.09,86.86 Z M 934.09,86.86" />
        <path id="wCAG-bezier24" fill-rule="evenodd" stroke="none" fill="rgb(0, 0, 0)" d="M 394.74,211.75 L 411.15,211.75 417.95,281.31 426.16,236.31 441.74,236.31 451.28,281.31 456.62,211.75 473.16,211.75 462.22,306.51 444.73,306.51 433.92,256.75 423.81,306.51 406.45,306.51 394.74,211.75 Z M 394.74,211.75" />
        <path id="wCAG-bezier25" fill-rule="evenodd" stroke="none" fill="rgb(0, 0, 0)" d="M 541.89,303.77 C 538.93,305.3 535.82,306.44 532.55,307.2 529.28,307.95 525.85,308.35 522.25,308.35 509.44,308.35 499.68,304.14 492.93,295.72 486.19,287.29 482.82,275.13 482.82,259.22 482.82,243.27 486.19,231.07 492.93,222.67 499.68,214.23 509.44,210.03 522.25,210.03 525.85,210.03 529.3,210.41 532.62,211.18 535.92,211.94 539.02,213.09 541.89,214.61 L 541.89,235.43 C 538.68,232.47 535.54,230.31 532.48,228.95 529.47,227.55 526.36,226.86 523.14,226.86 516.27,226.86 511.07,229.58 507.55,235.03 504.08,240.46 502.34,248.52 502.34,259.22 502.34,269.87 504.08,277.94 507.55,283.4 511.07,288.81 516.27,291.52 523.14,291.52 526.36,291.52 529.47,290.83 532.48,289.49 535.54,288.09 538.67,285.91 541.89,282.95 L 541.89,303.77 541.89,303.77 Z M 541.89,303.77" />
        <path id="wCAG-bezier26" fill-rule="evenodd" stroke="none" fill="rgb(0, 0, 0)" d="M 579.29,211.75 L 602.25,211.75 627.89,306.5 609.13,306.5 603.28,283.08 578.16,283.08 572.44,306.5 553.68,306.5 579.29,211.75 579.29,211.75 Z M 590.75,228.89 L 581.91,267.67 599.65,267.67 590.75,228.89 590.75,228.89 Z M 590.75,228.89" />
        <path id="wCAG-bezier27" fill-rule="evenodd" stroke="none" fill="rgb(0, 0, 0)" d="M 685.44,289.37 L 685.44,271.28 672.59,271.28 672.59,255.54 701.86,255.54 701.86,298.95 C 698.25,302.05 694.27,304.39 689.9,305.99 685.58,307.56 680.94,308.33 675.98,308.33 663.68,308.33 654.18,304.08 647.49,295.57 640.79,287.02 637.45,274.9 637.45,259.21 637.45,243.26 640.81,231.06 647.55,222.65 654.34,214.22 664.11,210.02 676.89,210.02 680.69,210.02 684.45,210.58 688.14,211.67 691.82,212.74 695.27,214.28 698.51,216.3 L 698.51,237.07 C 695.88,233.67 692.85,231.13 689.42,229.45 686.02,227.72 682.3,226.85 678.23,226.85 671.1,226.85 665.79,229.52 662.26,234.89 658.73,240.22 656.98,248.33 656.98,259.21 656.98,269.73 658.68,277.76 662.07,283.26 665.47,288.77 670.42,291.51 676.9,291.51 678.84,291.51 680.54,291.34 681.98,291.01 683.39,290.64 684.54,290.09 685.44,289.37 L 685.44,289.37 Z M 685.44,289.37" />
        <path id="wCAG-bezier28" fill-rule="evenodd" stroke="none" fill="rgb(0, 0, 0)" d="M 794.91,290.01 L 834.92,290.01 834.92,306.51 774.63,306.51 774.63,290.51 784.8,279.72 C 796.88,266.9 804.22,259.01 806.81,256.04 809.98,252.41 812.29,249.2 813.68,246.4 815.08,243.57 815.79,240.78 815.79,238.02 815.79,233.79 814.5,230.53 811.9,228.24 809.36,225.93 805.75,224.74 801.04,224.74 797.67,224.74 793.9,225.43 789.7,226.79 785.55,228.1 781.21,230.02 776.67,232.56 L 776.67,215.11 C 781.21,213.45 785.64,212.2 789.96,211.37 794.33,210.48 798.5,210.03 802.49,210.03 812.54,210.03 820.42,212.39 826.15,217.08 831.92,221.73 834.79,228.1 834.79,236.18 834.79,239.9 834.15,243.39 832.88,246.65 831.66,249.9 829.51,253.52 826.46,257.5 824.22,260.38 818.05,266.86 807.96,276.93 802.48,282.38 798.14,286.73 794.91,290.01 L 794.91,290.01 Z M 794.91,290.01" />
        <rect id="wCAG-rectangle15" stroke="none" fill="rgb(0, 0, 0)" x="861" y="283.39" width="20.8" height="23" />
        <path id="wCAG-bezier30" stroke="none" fill="rgb(0, 0, 0)" d="M 310.82,114.1 L 313.96,133.17 302.84,154.39 C 302.84,154.39 298.57,145.39 291.48,140.4 285.5,136.2 281.61,135.29 275.51,136.54 267.71,138.15 258.83,147.48 254.96,158.98 250.33,172.74 250.29,179.4 250.12,185.52 249.87,195.32 251.42,201.11 251.42,201.11 251.42,201.11 244.65,188.66 244.72,170.4 244.77,157.37 246.82,145.54 252.87,133.89 258.19,123.63 266.09,117.48 273.09,116.74 280.34,116 286.07,119.49 290.5,123.26 295.14,127.22 299.86,135.88 299.86,135.88 L 310.82,114.1 310.82,114.1 Z M 310.82,114.1" />
        <path id="wCAG-bezier31" stroke="none" fill="rgb(0, 0, 0)" d="M 312.19,221.95 C 312.19,221.95 307.28,230.71 304.21,234.09 301.15,237.46 295.67,243.42 288.9,246.4 282.12,249.39 278.57,249.94 271.9,249.31 265.22,248.64 259,244.79 256.83,243.2 254.65,241.57 249.09,236.83 245.95,232.41 242.8,227.98 237.89,219.14 237.89,219.14 237.89,219.14 240.63,228.01 242.34,231.76 243.33,233.93 246.37,240.56 250.66,246.32 254.67,251.7 262.47,260.95 274.32,263.04 286.16,265.13 294.3,259.83 296.32,258.54 298.33,257.25 302.58,253.71 305.27,250.84 308.07,247.83 310.73,244.02 312.2,241.72 313.27,240.05 315.02,236.66 315.02,236.66 L 312.19,221.95 312.19,221.95 Z M 312.19,221.95" />
        <path id="wCAG-bezier32" stroke="none" fill="rgb(0, 91, 156)" d="M 107.64,114.94 L 134.42,205.82 161.21,114.94 180.6,114.94 136.26,264.24 134.42,264.24 106.72,171.72 79.01,264.24 77.16,264.24 32.84,114.94 52.22,114.94 79.01,205.82 97.12,144.63 88.25,114.94 107.64,114.94 Z M 107.64,114.94" />
        <path id="wCAG-bezier33" stroke="none" fill="rgb(0, 91, 156)" d="M 235.66,216.33 C 235.66,229.84 232.06,241.22 224.86,250.43 217.66,259.64 208.33,264.24 196.88,264.24 188.25,264.24 180.75,261.51 174.34,256.04 167.92,250.57 163.19,243.17 160.12,233.84 L 175.26,227.57 C 177.48,233.22 180.4,237.68 184.03,240.93 187.66,244.18 191.94,245.82 196.86,245.82 202.03,245.82 206.41,242.93 209.98,237.16 213.55,231.38 215.33,224.44 215.33,216.33 215.33,207.36 213.41,200.4 209.61,195.5 205.17,189.72 198.21,186.83 188.73,186.83 L 181.34,186.83 181.34,177.99 207.21,133.37 175.99,133.37 167.31,148.12 161.77,148.12 161.77,114.94 233.8,114.94 233.8,123.98 206.46,170.98 C 216.08,174.05 223.34,179.64 228.26,187.76 233.19,195.86 235.66,205.39 235.66,216.33 L 235.66,216.33 Z M 235.66,216.33" />
    </g>    
    <text  fill="rgb(0, 0, 0)" font-family="BitstreamVeraSansMono-Bold, 'Bitstream Vera Sans Mono', monospace" font-weight="bold" font-size="131" x="895" y="185"><tspan x="895" y="307">1</tspan></text>
</svg>
