<?xml version="1.0" encoding="UTF-8"?>
<!DOCTYPE svg PUBLIC "-//W3C//DTD SVG 1.1//EN" "http://www.w3.org/Graphics/SVG/1.1/DTD/svg11.dtd">
<svg version="1.1" xmlns="http://www.w3.org/2000/svg" xmlns:xlink="http://www.w3.org/1999/xlink" width="400" height="300"  xml:space="preserve" id="librairy">
    <!-- Generated by PaintCode - http://www.paintcodeapp.com -->
    <g id="librairy-logogroup">
        <path id="librairy-logoname" stroke="none" fill="rgb(254, 209, 54)" d="M 127.46,119.58 C 123.92,119.82 122.06,120.12 118.82,120.9 115.16,121.8 113.78,122.04 111.26,122.16 111.32,119.82 114.74,112.2 118.28,102.84 121.94,93.3 125.12,85.74 126.32,83.7 124.16,80.52 121.94,78.9 118.76,78.24 116.84,87.06 115.88,90.78 112.94,99.36 108.44,112.5 105.08,118.98 103.52,122.58 105.08,125.22 107.06,127.2 108.86,127.86 116.66,126.6 120.38,126.24 124.22,126.24 125.84,126.24 127.28,126.3 128.66,126.48 128.84,125.88 128.96,125.28 128.96,124.56 128.96,123 128.48,121.32 127.46,119.58 Z M 132.5,118.98 C 132.5,122.52 136.28,124.08 136.88,124.08 137.24,124.08 137.24,123.54 137.24,122.1 137.3,120.36 138.2,117.78 139.04,115.56 141.08,110.28 142.16,106.02 145.82,101.94 144.26,99.6 141.56,98.28 140.24,97.98 136.64,99.78 134.9,106.02 134.54,107.58 132.98,114.78 132.5,117.6 132.5,118.98 Z M 143.96,92.94 C 143.96,93.6 144.8,94.38 145.76,94.56 146.36,93.24 150.74,87.9 152.54,86.22 151.34,84.42 147.14,82.02 145.28,82.02 144.26,84.6 143.42,88.5 143.42,89.88 143.42,90.54 143.72,91.44 144.14,91.86 144.02,92.34 143.96,92.7 143.96,92.94 Z M 152.12,123.42 C 152.12,124.2 154.52,125.16 156.38,125.16 163.1,125.16 173.18,110.52 173.42,100.32 173.06,97.5 170.72,94.74 168.14,94.08 164.78,94.08 157.58,101.76 153.08,110.1 157.16,94.98 163.64,83.7 172.4,76.62 171.44,75.54 168.14,73.5 166.58,73.02 158.9,76.32 147.38,102.78 147.38,117.06 147.38,117.84 147.44,118.26 147.62,118.62 147.74,118.92 148.22,119.46 148.64,119.76 149.54,120.42 149.9,120.84 150.02,121.2 150.26,121.92 150.68,122.4 151.04,122.4 151.64,116.4 163.88,97.44 167.24,97.32 167.66,97.44 168.02,97.86 168.02,98.28 166.64,107.28 159.56,118.44 152.12,123.42 Z M 173.48,121.8 C 174.02,123 176.96,124.92 178.4,125.04 180.74,114 183.32,109.74 190.88,104.52 191.66,106.86 193.46,108.96 195.62,110.04 196.82,108.84 198.02,107.22 198.08,106.74 197.54,105.84 197.3,104.52 197.3,102.78 197.3,100.86 197.66,99 198.38,97.08 198.02,96.48 196.82,96.06 195.68,96.06 195.02,96.06 194.72,96.12 194.42,96.36 191.54,100.68 188.3,103.92 184.04,107.76 185.72,102.66 187.22,99.6 189.38,97.08 188.42,95.94 185.6,94.56 183.38,94.2 182.42,95.16 181.7,96.42 180.68,98.88 177.8,105.72 174.26,117.12 173.48,121.8 Z M 219.8,98.76 C 218.06,102.36 215.66,106.86 213.98,109.68 209.66,116.88 206.78,120.24 204.44,120.72 203.9,120.54 203.6,120.12 203.6,119.28 203.6,111.9 211.46,101.28 217.88,100.26 217.7,98.76 215,95.94 213.38,95.52 206.9,95.88 198.26,108.12 198.26,117.06 198.26,121.2 200.3,124.2 203.24,124.32 206.96,123.72 212.24,117.72 215.48,110.4 213.98,114.3 213.2,117.54 213.2,119.76 213.2,122.76 214.28,124.2 216.44,124.2 217.64,124.2 219.38,123.72 220.34,123.12 219.26,122.52 218.78,120.96 218.78,118.74 218.78,114.66 221,107.58 224.24,100.86 224.3,100.08 221.48,98.76 219.8,98.76 Z M 227.12,118.98 C 227.12,122.52 230.9,124.08 231.5,124.08 231.86,124.08 231.86,123.54 231.86,122.1 231.92,120.36 232.82,117.78 233.66,115.56 235.7,110.28 236.78,106.02 240.44,101.94 238.88,99.6 236.18,98.28 234.86,97.98 231.26,99.78 229.52,106.02 229.16,107.58 227.6,114.78 227.12,117.6 227.12,118.98 Z M 238.58,92.94 C 238.58,93.6 239.42,94.38 240.38,94.56 240.98,93.24 245.36,87.9 247.16,86.22 245.96,84.42 241.76,82.02 239.9,82.02 238.88,84.6 238.04,88.5 238.04,89.88 238.04,90.54 238.34,91.44 238.76,91.86 238.64,92.34 238.58,92.7 238.58,92.94 Z M 239.78,121.8 C 240.32,123 243.26,124.92 244.7,125.04 247.04,114 249.62,109.74 257.18,104.52 257.96,106.86 259.76,108.96 261.92,110.04 263.12,108.84 264.32,107.22 264.38,106.74 263.84,105.84 263.6,104.52 263.6,102.78 263.6,100.86 263.96,99 264.68,97.08 264.32,96.48 263.12,96.06 261.98,96.06 261.32,96.06 261.02,96.12 260.72,96.36 257.84,100.68 254.6,103.92 250.34,107.76 252.02,102.66 253.52,99.6 255.68,97.08 254.72,95.94 251.9,94.56 249.68,94.2 248.72,95.16 248,96.42 246.98,98.88 244.1,105.72 240.56,117.12 239.78,121.8 Z M 287.96,113.7 C 289.64,108.48 291.86,103.44 294.32,98.22 293.6,97.32 290.6,96.3 288.5,96.3 284.6,102.72 282.14,108.3 278.36,114 275.36,118.44 272.84,120.48 271.4,120.72 271.28,120.6 270.98,120.24 270.98,119.64 270.98,117.54 272.78,112.08 273.5,110.28 277.1,101.76 280.4,97.2 281.3,96.42 279.92,95.04 277.16,94.56 275.84,94.56 270.86,98.22 266.6,108.36 265.1,114.42 264.68,116.1 264.56,117.24 264.56,119.52 265.22,122.34 268.64,124.08 271.16,124.2 274.88,122.88 279.26,116.1 281.3,112.86 276.8,130.14 268.16,141.24 259.04,141.24 257.24,141.24 256.64,140.94 254.78,139.26 254.3,139.56 253.94,140.04 253.94,140.52 255.14,142.74 259.4,144.66 263.36,144.66 267.26,144.66 271.28,142.56 274.94,138.72 280.76,132.66 284.36,125.4 287.96,113.7 Z M 287.96,113.7" />
        <path id="librairy-logobook" stroke="none" fill="rgb(254, 218, 94)" d="M 298.34,149.88 C 299.39,150.63 308.41,150.56 315.09,153.14 315.13,153.14 315.16,153.14 315.19,153.14 352.74,154.57 373.07,159.87 374.26,160.17 376.26,160.66 377.8,161.56 378.53,162.66 379.27,163.76 379.13,164.98 378.16,166.03 L 348.62,199.19 C 347.12,200.81 343.86,201.77 340.47,201.59 223.96,195.35 206.66,224.69 206.47,224.99 206.45,225.02 206.43,225.05 206.41,225.08 206.37,225.14 206.33,225.2 206.29,225.26 206.24,225.32 206.19,225.38 206.14,225.44 206.1,225.49 206.06,225.54 206.01,225.59 205.95,225.66 205.88,225.72 205.8,225.79 205.77,225.83 205.73,225.86 205.69,225.9 205.6,225.98 205.5,226.06 205.4,226.14 205.37,226.16 205.35,226.18 205.32,226.2 204.91,226.5 204.44,226.77 203.91,227 203.86,227.02 203.8,227.04 203.75,227.07 203.63,227.12 203.51,227.17 203.38,227.21 203.3,227.24 203.22,227.27 203.13,227.3 203.03,227.33 202.93,227.37 202.82,227.4 202.73,227.43 202.63,227.46 202.54,227.49 202.43,227.51 202.33,227.54 202.22,227.57 202.13,227.59 202.03,227.62 201.93,227.64 201.81,227.67 201.69,227.69 201.57,227.72 201.48,227.74 201.39,227.75 201.3,227.77 201.14,227.8 200.98,227.82 200.82,227.85 200.76,227.86 200.71,227.86 200.65,227.87 200.02,227.96 199.36,228 198.69,228 198.48,228 198.26,227.99 198.04,227.99 197.79,227.97 197.6,227.96 197.42,227.95 197.28,227.93 197.16,227.92 197.03,227.9 196.95,227.9 196.87,227.89 196.79,227.88 196.59,227.85 196.4,227.82 196.2,227.79 195.93,227.75 195.7,227.7 195.47,227.64 195.39,227.63 195.32,227.61 195.24,227.59 195.1,227.55 194.95,227.52 194.81,227.47 194.72,227.45 194.63,227.42 194.55,227.4 194.42,227.36 194.29,227.31 194.17,227.27 194.09,227.24 194.01,227.21 193.93,227.18 193.75,227.11 193.57,227.04 193.4,226.96 193.33,226.93 193.26,226.9 193.19,226.86 193.08,226.81 192.97,226.75 192.86,226.7 192.8,226.66 192.73,226.62 192.67,226.59 192.56,226.52 192.46,226.46 192.36,226.4 192.31,226.36 192.25,226.33 192.2,226.29 192.09,226.21 191.98,226.13 191.87,226.05 191.85,226.02 191.82,226 191.79,225.98 191.66,225.87 191.53,225.76 191.42,225.64 191.29,225.5 191.2,225.39 191.12,225.29 191.09,225.25 191.06,225.2 191.03,225.16 191,225.11 190.96,225.06 190.93,225.01 190.8,224.82 186.65,218.66 172.06,212.59 152.18,204.3 122.07,200.74 84.98,200.74 75.45,200.74 67.75,201.02 57.26,201.59 53.86,201.77 50.6,200.8 49.1,199.17 L 19.87,166.01 C 18.91,164.96 18.78,163.76 19.51,162.66 20.24,161.56 21.77,160.66 23.76,160.17 25.13,159.83 47.42,154.02 86.83,153 87.57,152.68 88.35,152.4 89.15,152.16 94.6,150.54 101.09,150.64 101.63,150.09 101.16,149.91 120.22,152.37 148.01,154.08 162.75,154.99 179.95,155.68 197.99,155.66 247.87,155.61 292.56,150.39 297.85,149.92 298.11,149.89 298.28,149.88 298.34,149.88 Z M 206.86,178.84 L 206.86,212.2 C 210.43,210.3 214.73,208.33 219.9,206.43 247.99,196.07 288,191.99 338.89,194.29 L 367.77,163.14 C 357.27,161.09 337.16,158.59 313.53,157.72 310.74,157.62 307.99,157.55 305.27,157.51 264.7,156.97 231.64,163.69 206.86,178.84 Z M 95.65,157.51 C 77.58,157.51 60.91,158.83 48.06,160.4 40.72,161.3 34.63,162.28 30.23,163.14 L 58.86,194.29 C 67.88,193.89 76.65,193.68 84.98,193.68 118.6,193.68 143.18,196.94 161.06,201.35 174.19,204.59 183.7,208.45 190.52,212.09 L 190.52,178.83 C 166.5,164.14 134.6,157.51 95.65,157.51 Z M 95.65,157.51" />
    </g>
</svg>
